<?xml version="1.0" encoding="UTF-8" standalone="no"?>
<!-- Created with Inkscape (http://www.inkscape.org/) -->

<svg
   xmlns:dc="http://purl.org/dc/elements/1.1/"
   xmlns:cc="http://creativecommons.org/ns#"
   xmlns:rdf="http://www.w3.org/1999/02/22-rdf-syntax-ns#"
   xmlns:svg="http://www.w3.org/2000/svg"
   xmlns="http://www.w3.org/2000/svg"
   xmlns:xlink="http://www.w3.org/1999/xlink"
   xmlns:sodipodi="http://sodipodi.sourceforge.net/DTD/sodipodi-0.dtd"
   xmlns:inkscape="http://www.inkscape.org/namespaces/inkscape"
   width="698.09003"
   height="350"
   id="svg2"
   version="1.1"
   inkscape:version="0.48.5 r10040"
   sodipodi:docname="svgIntro.svg">
  <defs
     id="defs4">
    <linearGradient
       inkscape:collect="always"
       id="linearGradient4449">
      <stop
         style="stop-color:#0066ff;stop-opacity:1"
         offset="0"
         id="stop4451" />
      <stop
         style="stop-color:#5599ff;stop-opacity:1"
         offset="1"
         id="stop4453" />
    </linearGradient>
    <linearGradient
       inkscape:collect="always"
       id="linearGradient4389">
      <stop
         style="stop-color:#2a7fff;stop-opacity:1;"
         offset="0"
         id="stop4391" />
      <stop
         style="stop-color:#80b5ff;stop-opacity:1"
         offset="1"
         id="stop4393" />
    </linearGradient>
    <inkscape:perspective
       sodipodi:type="inkscape:persp3d"
       inkscape:vp_x="0 : 526.18109 : 1"
       inkscape:vp_y="0 : 1000 : 0"
       inkscape:vp_z="744.09448 : 526.18109 : 1"
       inkscape:persp3d-origin="372.04724 : 350.78739 : 1"
       id="perspective4008" />
    <clipPath
       clipPathUnits="userSpaceOnUse"
       id="clipPath3959">
      <rect
         style="fill:#000000;fill-opacity:1;stroke:none"
         id="rect3961"
         width="365.71429"
         height="365.71429"
         x="-2452.8572"
         y="8563.791" />
    </clipPath>
    <linearGradient
       inkscape:collect="always"
       xlink:href="#linearGradient4389"
       id="linearGradient4395"
       x1="-2464.6353"
       y1="8745.5332"
       x2="-1953.3551"
       y2="8745.5332"
       gradientUnits="userSpaceOnUse"
       gradientTransform="matrix(1.1777443,0,0,1.1777443,2926.8454,-9411.943)" />
    <linearGradient
       inkscape:collect="always"
       xlink:href="#linearGradient4449"
       id="linearGradient4455"
       x1="-2378.8438"
       y1="9268.6191"
       x2="-1698.5511"
       y2="9268.6191"
       gradientUnits="userSpaceOnUse"
       gradientTransform="translate(137.18614,-1044.18)" />
  </defs>
  <sodipodi:namedview
     id="base"
     pagecolor="#ffffff"
     bordercolor="#666666"
     borderopacity="1.0"
     inkscape:pageopacity="0.0"
     inkscape:pageshadow="2"
     inkscape:zoom="0.49497476"
     inkscape:cx="353.60705"
     inkscape:cy="287.17142"
     inkscape:document-units="px"
     inkscape:current-layer="layer1"
     showgrid="false"
     inkscape:window-width="1440"
     inkscape:window-height="785"
     inkscape:window-x="0"
     inkscape:window-y="0"
     inkscape:window-maximized="1" />
  <metadata
     id="metadata7">
    <rdf:RDF>
      <cc:Work
         rdf:about="">
        <dc:format>image/svg+xml</dc:format>
        <dc:type
           rdf:resource="http://purl.org/dc/dcmitype/StillImage" />
        <dc:title />
      </cc:Work>
    </rdf:RDF>
  </metadata>
  <g
     inkscape:label="Calque 1"
     inkscape:groupmode="layer"
     id="layer1"
     transform="translate(0,-702.36034)">
    <a xlink:href="random.html">
    <text
       sodipodi:linespacing="125%"
       y="1018.769"
       x="570.56342"
       style="font-style:normal;font-weight:normal;line-height:125%;letter-spacing:0px;word-spacing:0px;fill:#333333;fill-opacity:1;stroke:none;font-family:Sans"
       xml:space="preserve"><tspan
         style="font-style:normal;font-variant:normal;font-weight:normal;font-stretch:normal;fill:#333333;font-family:American Typewriter;-inkscape-font-specification:American Typewriter"
         id="randomText"
         y="1018.769"
         x="580.56342"
         sodipodi:role="line">random</tspan></text>
    </a>
    <a xlink:href="about.html">
    <text
       xml:space="preserve"
       style="font-style:normal;font-weight:normal;line-height:125%;letter-spacing:0px;word-spacing:0px;fill:#333333;fill-opacity:1;stroke:none;font-family:Sans"
       x="102.30184"
       y="855.31982"
       sodipodi:linespacing="125%"><tspan
         sodipodi:role="line"
         x="102.30184"
         y="855.31982"
         style="font-style:normal;font-variant:normal;font-weight:normal;font-stretch:normal;fill:#333333;font-family:American Typewriter;-inkscape-font-specification:American Typewriter"
         id="aboutText">
         about</tspan></text>
    </a>
    <a xlink:href="news.html">
    <text
       sodipodi:linespacing="125%"
       
       y="750.14404"
       x="282.23795"
       style="font-style:normal;font-weight:normal;line-height:125%;letter-spacing:0px;word-spacing:0px;fill:#333333;fill-opacity:1;stroke:none;font-family:Sans"
       xml:space="preserve"><tspan
         style="font-style:normal;font-variant:normal;font-weight:normal;font-stretch:normal;fill:#333333;font-family:American Typewriter;-inkscape-font-specification:American Typewriter"
         y="750.14404"
         x="282.23795"
         id="newsText"
         sodipodi:role="line">news</tspan></text>
    </a>
    <a xlink:href="design.html">
    <text
       sodipodi:linespacing="125%" 
       y="936.34241"
       x="412.34912"
       style="font-style:normal;font-weight:normal;line-height:125%;letter-spacing:0px;word-spacing:0px;fill:#333333;fill-opacity:1;stroke:none;font-family:Sans"
       xml:space="preserve"><tspan
         style="font-style:normal;font-variant:normal;font-weight:normal;font-stretch:normal;fill:#333333;font-family:American Typewriter;-inkscape-font-specification:American Typewriter"
         y="936.34241"
         x="412.34912"
         sodipodi:role="line"
          id="designText"
          href="./news.html"
          >design</tspan></text>
    </a>
    <path
       style="fill:url(#linearGradient4395);fill-opacity:1;stroke:none"
       id="path4373"
       d="m 24.162402,857.98927 c 29.183325,-23.284 51.94182,-53.55721 80.430508,-77.54174 9.43597,-7.944 18.91152,-18.25103 31.11801,-20.024 7.47114,-1.08518 16.24957,5.64587 18.69198,12.78947 2.85073,8.3382 -4.48226,17.10686 -5.47698,25.86256 -0.42305,3.7232 0.84644,7.44629 1.26961,11.16949 23.19437,-22.93892 13.2541,-16.39808 62.54823,-31.7667 51.07147,-15.92275 74.08412,-27.5816 123.63865,0.82418 13.32783,7.63979 27.45098,19.31218 30.76798,34.31205 3.61791,16.36016 -8.27212,32.47382 -12.40824,48.71068 -2.11488,12.74307 -5.5672,25.33528 -6.34475,38.22922 -2.09297,34.70754 4.14672,19.48637 22.80208,48.82233 5.76541,9.06604 8.78915,19.61192 13.48211,29.27672 11.73386,24.16517 13.95591,4.74384 7.4696,24.07557 22.83152,-11.88273 -15.32905,13.4832 44.93778,-2.6923 22.07776,-5.92561 43.18882,-15.01921 65.00559,-21.84306 25.38381,-7.93953 89.95741,-17.20107 107.03128,-49.64604 7.44676,-14.15095 0.43965,-31.97835 0.65954,-47.96752 -4.13918,-13.14504 -7.85779,-38.06753 -11.99697,-51.21256 -9.92109,-9.40111 15.65127,3.72932 19.0261,7.67512 l 0,0 c 3.15942,15.0279 6.31872,30.0558 9.47813,45.0837 -1.95988,18.25315 1.353,37.88603 -5.87965,54.75922 -20.18018,47.0782 -59.19814,62.69533 -106.92717,71.36824 -23.9267,4.3479 -48.66851,-0.35 -72.94853,1.018 -57.4201,3.2353 -30.10221,13.6616 -60.12738,-1.3797 -1.79877,-8.11311 -3.02704,-14.86913 -7.41496,-22.82326 -5.17136,-9.37449 -12.59009,-17.37114 -17.90549,-26.6646 -5.70793,-9.97973 -10.46178,-20.49016 -15.08537,-31.01625 -4.78871,-10.90202 -13.82012,-21.33389 -13.1309,-33.22134 0.7216,-12.44746 11.32601,-22.21626 16.98896,-33.32439 2.54192,-12.88888 10.4639,-25.83971 7.62589,-38.66652 -2.48775,-11.24357 -12.27421,-20.51819 -22.06292,-26.58346 -13.09381,-8.11312 -28.53509,-14.35894 -43.93858,-14.31206 -38.31838,0.11659 -78.51856,24.40333 -115.58582,30.73618 -10.30255,1.76025 -20.87198,-1.14972 -31.30798,-1.72457 -3.63522,-15.28041 -7.56724,-16.57016 5.38253,-30.04014 1.99051,-2.07047 10.68968,-4.07264 8.2037,-2.63438 -10.52221,6.08741 -22.69785,9.38922 -32.44215,16.65696 -29.628276,22.09837 -52.180784,52.75529 -83.170298,73.33649 -0.680382,0.87706 -13.084503,-8.74452 -12.40412,-9.62159 z"
       inkscape:connector-curvature="0"
       sodipodi:nodetypes="csscccssscssscssscccccssscsssscsssscscscc"
       inkscape:export-filename="/Users/Edward/Documents/Design/EdwardWebSite/images/cover_trait.png"
       inkscape:export-xdpi="352.06"
       inkscape:export-ydpi="352.06"
       />
    <text
       sodipodi:linespacing="125%"
       id="text5088"
       y="9670.8105"
       x="-1261.8441"
       style="font-size:23.51605415px;font-style:normal;font-weight:normal;line-height:125%;letter-spacing:0px;word-spacing:0px;fill:#333333;fill-opacity:1;stroke:none;font-family:Sans"
       xml:space="preserve"><tspan
         id="tspan5098"
         style="font-style:normal;font-variant:normal;font-weight:normal;font-stretch:normal;fill:#333333;font-family:American Typewriter;-inkscape-font-specification:American Typewriter"
         y="9670.8105"
         x="-1261.8441"
         sodipodi:role="line" /></text>
  </g>
</svg>
